# xmcd
#
# Track frame offsets: 
#        150
#        11581
#        22185
#        30870
#        41505
#        52567
#        64989
#        77723
#        90043
#        101524
#        113131
#        127819
#        139796
#        148475
#        160077
#        169459
#        182232
#        193696
#        205423
#        217836
#
# Disc length: 3031 seconds
#
# Revision: 0
# Processed by: cddbd v1.5.2PL0 Copyright (c) Steve Scherf et al.
# Submitted via: ExactAudioCopy v1.3
#
DISCID=0b0bd514
DTITLE=Various Artist - Rhythm and Blues Party [Disc 02]
DYEAR=2017
DGENRE=R&B
TTITLE0=Lloyd Price - Lawdy Miss Clawdy
TTITLE1=Chuck Berry - Maybellene
TTITLE2=Fats Domino - I'm In Love Again
TTITLE3=Clarence 'Frogman' Henry - Ain't Got No Home
TTITLE4=Ernie K. Doe - Mother-In-Law
TTITLE5=Bobby Parker - Watch Your Step
TTITLE6=Jackie Brenston - Rocket 88
TTITLE7=Jackie Wilson - Reet Petite
TTITLE8=Little Willie John - Leave My Kitten Alone
TTITLE9=Little Walter - My Babe
TTITLE10=James Brown - Night Train
TTITLE11=Big Joe Turner - Honey Hush
TTITLE12=Chris Kenner - I Like It Like That
TTITLE13=Dolly Cooper - I Wanna Know (What Cha Doin' Down There)
TTITLE14=Frankie Lee Sims - She Likes To Boogie Real Low
TTITLE15=Prince Conley - I'm Going Home
TTITLE16=Ruth Brown - Sweet Baby Of Mine
TTITLE17=The Johnny Otis Show - Willie And The Hand Jive
TTITLE18=Smiley Lewis - I Hear You Knockin'
TTITLE19=Billy Gayles - Do Right, Baby
EXTD=
EXTT0=
EXTT1=
EXTT2=
EXTT3=
EXTT4=
EXTT5=
EXTT6=
EXTT7=
EXTT8=
EXTT9=
EXTT10=
EXTT11=
EXTT12=
EXTT13=
EXTT14=
EXTT15=
EXTT16=
EXTT17=
EXTT18=
EXTT19=
PLAYORDER=
